<?xml version="1.0" standalone="no"?>
<!DOCTYPE svg PUBLIC "-//W3C//DTD SVG 20010904//EN"
 "http://www.w3.org/TR/2001/REC-SVG-20010904/DTD/svg10.dtd">
<svg version="1.0" xmlns="http://www.w3.org/2000/svg"
 width="90.000000pt" height="90.000000pt" viewBox="0 0 90.000000 90.000000"
 preserveAspectRatio="xMidYMid meet">
<metadata>
Created by potrace 1.14, written by Peter Selinger 2001-2017
</metadata>
<g transform="translate(0.000000,90.000000) scale(0.100000,-0.100000)"
fill="#000000" stroke="none">
<path d="M332 875 c-72 -20 -103 -37 -150 -85 -71 -70 -91 -184 -48 -275 37
-80 72 -102 246 -160 158 -52 193 -88 133 -135 -25 -20 -36 -22 -103 -17 -81
7 -167 32 -238 72 -24 14 -45 25 -46 25 -1 0 -2 -48 -1 -107 l0 -108 35 -17
c110 -54 321 -71 426 -35 121 42 191 122 200 229 6 74 -10 121 -59 171 -44 46
-86 66 -227 112 -103 34 -136 49 -144 70 -9 25 11 62 41 72 67 23 222 -12 306
-69 l27 -19 0 114 0 115 -57 21 c-32 11 -76 24 -98 29 -65 14 -186 12 -243 -3z"/>
</g>
</svg>
