<svg xmlns="http://www.w3.org/2000/svg" width="297" height="155" viewBox="0 0 297 155">
  <g id="Group_4229" data-name="Group 4229" transform="translate(18760 23445)">
    <path id="Path_90512" data-name="Path 90512" d="M0,0H297V155H0Z" transform="translate(-18760 -23445)" fill="none"/>
    <g id="Group_4227" data-name="Group 4227" transform="translate(0 -166.32)">
      <g id="Group_4226" data-name="Group 4226" transform="translate(-18767 -23337.357)">
        <path id="Path_77463" data-name="Path 77463" d="M261.113,148.559h17.028V69.111l-17.028,1.845Zm-27.614,0h17.028V69.111L233.5,70.956Zm-24.19-26.919c0,8.236-5.354,14-12.524,14s-12.631-5.752-12.631-14,5.458-14,12.631-14,12.524,5.752,12.524,14m-41.637,0c0,16.174,12.524,28,28.793,28s29.33-12.044,29.33-28.331c0-16.174-12.316-28.007-28.793-28.007-16.364,0-29.327,12.05-29.327,28.334ZM98.96,108.178c5.564,0,8.778,3.91,8.778,9.662v30.719h16.91V114.484a11.928,11.928,0,0,0-.107-1.952,12.668,12.668,0,0,1,4.447-3.28,12.537,12.537,0,0,1,5.4-1.063c5.564,0,8.778,3.91,8.778,9.662v30.716h16.91V114.484c0-12.374-6.849-21.276-19.91-21.276a21.811,21.811,0,0,0-10.271,2.33,22.088,22.088,0,0,0-8.031,6.9,18.038,18.038,0,0,0-7.089-7.075,17.736,17.736,0,0,0-9.717-2.151,20.638,20.638,0,0,0-8.848,1.718,20.931,20.931,0,0,0-7.314,5.336V94.4H72.414v54.166h16.91V112.431a12.59,12.59,0,0,1,9.636-4.253m-49.982,25.4c0,2.391-2.359,4.017-6.743,4.017a38.211,38.211,0,0,1-19.373-6.728v14a41.288,41.288,0,0,0,19.48,4.666c14.45,0,22.368-7.488,22.368-17.366,0-6.948-3.532-11.831-12.2-14.762l-11.239-3.8c-2.677-.869-3.962-2.278-3.962-3.907,0-2.281,1.926-3.91,5.995-3.91a32.28,32.28,0,0,1,17.768,6.078V97.65a36.42,36.42,0,0,0-17.456-4.233c-13.272,0-21.62,7.173-21.62,17.8,0,7.271,4.5,12.264,11.88,14.655l10.384,3.364c3.546,1.19,4.718,2.495,4.718,4.34" transform="translate(-1 -6.788)"/>
        <path id="Path_77464" data-name="Path 77464" d="M122.774,73.378a8.014,8.014,0,0,1,2.908.39,2.648,2.648,0,0,1,1.271,1.086,2.71,2.71,0,0,1,.378,1.643,2.369,2.369,0,0,1-1.048,2.128,4.035,4.035,0,0,1-1.545.531,2.575,2.575,0,0,1,1.834,1.063,2.979,2.979,0,0,1,.583,1.672v.8q0,.377.026.8a1.785,1.785,0,0,0,.09.566l.066.133h-1.756l-.026-.107-.026-.121-.04-.347v-.858a2.67,2.67,0,0,0-.17-1.377,2.635,2.635,0,0,0-.832-1.1,4.464,4.464,0,0,0-2.1-.349h-1.464v4.254h-1.874v-10.8Zm2.72,3.269a1.652,1.652,0,0,0-.707-1.582,4.8,4.8,0,0,0-2.264-.4h-1.6v3.91h1.689a4.974,4.974,0,0,0,1.782-.243,1.644,1.644,0,0,0,.832-.653,1.677,1.677,0,0,0,.266-1.034m7.158,2.154a9.64,9.64,0,0,1-.707,3.786,9.522,9.522,0,0,1-2.131,3.194,9.266,9.266,0,0,1-6.855,2.891,9.229,9.229,0,0,1-3.725-.722,9.323,9.323,0,0,1-3.127-2.171,9.516,9.516,0,0,1-2.114-3.2,9.664,9.664,0,0,1-.7-3.78,9.553,9.553,0,0,1,.71-3.765,9.442,9.442,0,0,1,2.131-3.171,9.724,9.724,0,0,1,10.549-2.151,9.34,9.34,0,0,1,3.142,2.151,9.451,9.451,0,0,1,2.128,3.168,9.576,9.576,0,0,1,.71,3.768Zm-9.694-8.475a7.912,7.912,0,0,0-3.2.624,8,8,0,0,0-2.691,1.865A8.254,8.254,0,0,0,114.64,78.8a8.417,8.417,0,0,0,.6,3.266,8.318,8.318,0,0,0,1.822,2.761,7.912,7.912,0,0,0,5.9,2.489,7.864,7.864,0,0,0,3.2-.624,7.976,7.976,0,0,0,2.685-1.865,8.209,8.209,0,0,0,1.825-2.761,9.084,9.084,0,0,0,0-6.512,8.185,8.185,0,0,0-1.825-2.74,7.957,7.957,0,0,0-5.894-2.489" transform="translate(171.335 -7)"/>
      </g>
      <text id="VetSuite" transform="translate(-18744 -23137)" font-size="45" font-family="CooperLtBT-Regular"><tspan x="0" y="0">VetSuite</tspan></text>
    </g>
  </g>
</svg>
