<svg xmlns="http://www.w3.org/2000/svg" xmlns:xlink="http://www.w3.org/1999/xlink" width="166.509" height="166.317" viewBox="0 0 166.509 166.317">
  <defs>
    <clipPath id="clip-path">
      <rect id="Rectangle_4714" data-name="Rectangle 4714" width="166.509" height="150.639" fill="none"/>
    </clipPath>
    <clipPath id="clip-path-2">
      <rect id="Rectangle_964" data-name="Rectangle 964" width="30.064" height="44.055"/>
    </clipPath>
  </defs>
  <g id="Group_3676" data-name="Group 3676" transform="translate(-229.689 -203.682)">
    <g id="Group_3430" data-name="Group 3430" transform="translate(229.689 203.682)">
      <g id="Group_3429" data-name="Group 3429" clip-path="url(#clip-path)">
        <path id="Path_88526" data-name="Path 88526" d="M21.6,120.712l-.623-1.508.209-.312,1.616.733c2.942-2.262,4.155-5.713,5.475-8.913a17.117,17.117,0,0,1-2.655-1.231,2.73,2.73,0,0,1,0-4.369,3.412,3.412,0,0,1,1.163-.294l.16.316c-.254.355-.52.7-.758,1.067a1.753,1.753,0,0,0,1.085,2.864c.519.148,1.033.319,1.561.423.969.191,1.048.812.74,1.555-.732,1.769-1.4,3.575-2.3,5.261a25.271,25.271,0,0,1-2.506,3.528,5.612,5.612,0,0,1-1.23.868,13.28,13.28,0,0,0,5.737,2.541c2.255.36,4.525.6,6.7-.347a12.869,12.869,0,0,0,2.154-1.307c.59-.412.6-.729-.116-1.172-.5-.309-.759-1.005-1.125-1.529-.173-.247-.352-.489-.516-.742-.146-.225-.273-.463-.408-.695a2,2,0,0,1,.706-.224c3.917.351,6.262-1.149,7.437-4.844.406-1.278.723-2.586,1.154-3.856.12-.354.5-.62.763-.927.112.369.4.8.308,1.1a59.923,59.923,0,0,1-2.441,7.023c-.835,1.806-2.7,2.387-4.623,2.593a3.621,3.621,0,0,0-1.011.452c.286.273.527.647.868.8a1.4,1.4,0,0,1,.492,2.4c-1.812,2.086-4.268,2.467-6.8,2.55a16.619,16.619,0,0,1-10.04-2.736c-4.763,2.445-7.878,6.391-10.557,10.7a27.026,27.026,0,0,0-3.477,10.653c-.273,1.919-.622,3.838-.72,5.768-.154,3.025-.215,6.062-.15,9.09q.123,5.743.523,11.479a66.013,66.013,0,0,0,3.076,16.811,7.3,7.3,0,0,0,1.44,2.342A3.848,3.848,0,0,1,13.89,192c-.484,2.85-.469,2.847,2.431,2.95.767.027,1.742.4,2.236.054.432-.3.271-1.394.471-2.11a2.366,2.366,0,0,1,.682-1.287,5.24,5.24,0,0,0,2.1-3.839c.4-2.662.725-5.348.859-8.035.257-5.158.347-10.324.528-15.485q.208-5.9.487-11.787a5.417,5.417,0,0,1,.452-1.377l.5-.018a5.535,5.535,0,0,1,.589,1.695c0,2.072-.126,4.145-.195,6.218-.152,4.637-.285,9.275-.451,13.911-.149,4.179-.331,8.358-.5,12.551,1.654,1.02,3.4,2.048,5.09,3.161a1.49,1.49,0,0,0,1.885-.155c2.363-1.66,4.745-3.3,7.067-5.01q8.924-6.592,17.8-13.25c.674-.5,1.292-1.082,1.9-1.6l-1.579-3.764.535-.3,1.745,2.411,1.969-2.24a16.61,16.61,0,0,1-1.347-2.579,1.674,1.674,0,0,0-1.6-1.373,3.285,3.285,0,0,0-.457-.063c-2.691.183-3.164-1.487-2.4-3.734,1.3-3.821,2.695-7.613,4.028-11.425a3.107,3.107,0,0,1,2.919-2.388,56.486,56.486,0,0,1,5.876-.007,2.069,2.069,0,0,1,1.994,2.742c-.446,1.932-1.093,3.818-1.6,5.556.562-.115,1.454-.525,1.68-.292a2.886,2.886,0,0,1,.5,1.85,18.987,18.987,0,0,1-.343,2.633c1.477-1.329,2.922-2.516,4.236-3.835A64.34,64.34,0,0,1,86.7,141.855a18.261,18.261,0,0,1,3.021-1.422c3.486-1.282,6.251-.218,8.349,2.859,2.006,2.943,2.53,6.31,3.143,9.667a67.442,67.442,0,0,1,1.031,6.7c.3,3.785.408,7.586.6,11.381.026.522.023,1.168-.683,1.011a1.481,1.481,0,0,1-.885-1.066c-.3-3.958-.282-7.952-.805-11.876-.573-4.3-1.54-8.549-2.513-12.779a9.282,9.282,0,0,0-1.806-3.316,4.882,4.882,0,0,0-6.262-1.253,61.2,61.2,0,0,0-14.553,10.6c-1.944,1.853-3.892,3.7-5.791,5.6-.289.289-.316.833-.483,1.251a28.19,28.19,0,0,1-1.436,3.45,3.88,3.88,0,0,1-3.439,1.968,3.119,3.119,0,0,0-2.864,1.322,16.458,16.458,0,0,1-1.545,1.715c-.307.361-1,.6-.514,1.313.05.074-.23.445-.422.6-3.9,3.061-7.78,6.145-11.72,9.151-3.383,2.58-6.82,5.09-10.264,7.587-1.645,1.193-3.412,2.221-5.033,3.445a2.607,2.607,0,0,1-3.209.008c-1.317-.784-2.564-1.686-3.843-2.533-.25-.166-.512-.315-.769-.472-.463,1.184-.854,2.339-1.369,3.434a4.3,4.3,0,0,1-1.122,1.393,2.479,2.479,0,0,0-1.14,2.46c.271,1.607.329,3.26.72,4.833a6.272,6.272,0,0,1-3.418,7.078A13.54,13.54,0,0,1,14.019,207a5.4,5.4,0,0,1-2.332-.324c-.34-.105-.806-.646-.77-.935a2.116,2.116,0,0,1,.781-1.263,15.355,15.355,0,0,1,1.483-.709c-1.84-.438-3.347.321-4.784,1.309A6.834,6.834,0,0,1,6.812,206.2a2.677,2.677,0,0,1-2-.052c-.668-.458-.6-1.287-.044-2.03a6.092,6.092,0,0,1,3.818-2.763,5.237,5.237,0,0,1,1.387.186L5.7,204.773l.155.151a38.616,38.616,0,0,1,4.6-2.119,6,6,0,0,1,4.982.595c-.482,1.716-2.2,1.443-3.184,2.427a4.463,4.463,0,0,0,1.354-.021,18.4,18.4,0,0,0,4.13-1.6,4.663,4.663,0,0,0,1.937-5.461c-.608-2.456-.6-2.453-3.165-2.573-.692-.032-1.384-.112-2.076-.126-.333-.006-.777-.026-.984.164a3,3,0,0,1-2.835.489c-3.854-.678-7.175,0-9.377,3.634-.184.3-.718.395-1.089.585a3.312,3.312,0,0,1-.111-1.236c.689-2.136,3.828-4.245,6.392-4.259,1.494-.009,2.989.212,4.482.191a3.843,3.843,0,0,0,1.4-.5c-.082-1.329-.214-2.337-.186-3.34a3.672,3.672,0,0,0-.846-2.655c-1.807-2.166-2.091-4.915-2.675-7.535a80.066,80.066,0,0,1-1.9-15.228c-.111-4.005-.546-8.02-.37-12.01.216-4.905.337-9.856,1.574-14.663a30.978,30.978,0,0,1,8.246-14.857,44.964,44.964,0,0,1,4.484-3.436c.3-.229.62-.441.949-.675m47.41,31.945-.206,0c-.507.755-.976,1.541-1.538,2.253a5.615,5.615,0,0,1-1.1.853,6.4,6.4,0,0,1-.784-1.261,15.193,15.193,0,0,1-.418-1.987l-.22.056L63.2,157.328l-2.877-3.168-.335.093c.1.831.135,1.677.318,2.49.507,2.248.22,2.6-2.144,2.424-.5-.036-1-.08-1.5-.1-.38-.016-.761,0-1.141,0q0,.165,0,.331c.275.048.548.117.825.142,2.022.185,3.654.826,4.139,3.117a1.511,1.511,0,0,0,1.093.945,10.105,10.105,0,0,0,3.386-.459,3.531,3.531,0,0,0,2.48-2.782c.317-1.888.774-3.752,1.164-5.628.143-.688.267-1.381.4-2.072" transform="translate(0 -80.526)"/>
        <path id="Path_88527" data-name="Path 88527" d="M357.943,404.979a3.345,3.345,0,0,1-1.253.187c-1.025-.267-2.015-.666-2.98-1l-3.788,9.847c-1.28-.249-1.238-1-.949-1.775.946-2.522,1.949-5.023,2.9-7.543.392-1.04.705-2.109,1.031-3.1l-3.574-1.479c-1.728,3.079-2.152,6.714-4.1,9.69-1.136-.408-.94-1.148-.673-1.84,1.078-2.793,2.187-5.573,3.319-8.444a9.258,9.258,0,0,0-.908-.482c-6.4-2.623-12.79-5.282-19.217-7.843-6.5-2.59-13.047-5.062-19.555-7.631-1.9-.748-3.721-1.67-5.594-2.477-2.856-1.23-5.725-2.428-8.588-3.64-1.545-.654-3.1-1.291-4.633-1.968-.862-.38-1.092-1.544-.392-2.6,1-1.507,2.1-2.949,3.188-4.393a166.534,166.534,0,0,1,14.134-16.646,13.911,13.911,0,0,1,2.2-1.857,1.611,1.611,0,0,1,2.677,1.251c.139,1.124.081,2.272.118,3.408.091,2.77.191,5.539.274,8.309.013.447-.042.9-.081,1.642,2.819-.971,5.528-1.906,8.239-2.837a32.185,32.185,0,0,1,3.177-1.035c.366-.084.836.282,1.258.443-.283.281-.518.7-.858.821-3.754,1.3-7.521,2.552-11.291,3.8-.86.284-1.325-.14-1.3-1.1,0-.1,0-.262-.051-.293-1.089-.6-.666-1.637-.676-2.5-.035-3.009.008-6.018,0-9.028,0-.638-.079-1.277-.146-2.282-7.962,6.946-13.653,15.4-20.149,23.466l22.592,9.61c0-.938,0-1.659,0-2.379,0-3.852-.029-7.7,0-11.554a19.1,19.1,0,0,1,.31-2.87c.045-.279.327-.52.5-.778.251.247.705.486.715.742.038.953-.072,1.911-.123,2.868-.008.151,0,.3,0,.549,1.259.09,2.366.143,3.385-.894a13.482,13.482,0,0,1,2.714-1.7,11.265,11.265,0,0,1-.218-1.92,14.607,14.607,0,0,1,.393-2.156c1.169.629,1.45,2.219.806,4.322,2.326.892,1.917,2.882,1.916,4.588l-2.385.882.078.551,2.452.367c.023.345.05.75.074,1.108a7.269,7.269,0,0,0-1.534.029c-.286.066-.508.412-.758.631a10.629,10.629,0,0,0,.94.668c.1.058.3-.031.444-.081.809-.281,1.267-.049,1.274.8l-2.569.623c.825,1.34,1.7,1.318,2.73.652l.717,1.215a7.413,7.413,0,0,0-1.274.36c-.26.125-.437.42-.651.64.274.231.547.653.823.656a12.512,12.512,0,0,0,2.029-.293c.289-.046.579-.084,1.089-.158a5.937,5.937,0,0,0-.78,1.172.938.938,0,0,0,.2.786c.174.185.638.369.771.272a12.091,12.091,0,0,0,1.293-1.237c.174-.172.354-.339.531-.508l.2.222a8.455,8.455,0,0,0-.091,1.544c.023.215.382.393.588.588.166-.184.42-.345.478-.558a11.2,11.2,0,0,0,.215-1.42q8.561,1.062,7.859,8.276l-6.618.357-.039.185c1.808.727,3.619,1.447,5.424,2.183,5.088,2.074,10.185,4.127,15.25,6.258a8.33,8.33,0,0,1,2.65,1.764c.343.348.148,1.226.188,1.745l3.627,2.264.03-.038" transform="translate(-221.701 -268.585)"/>
        <path id="Path_88528" data-name="Path 88528" d="M108.639,21.836c-1.3.188-2.511.337-3.709.54-2.1.355-3.424-.405-3.825-2.484a7.245,7.245,0,0,1,.823-5.541c.651-1.036.6-2.509.888-3.78a15.4,15.4,0,0,1,3.522-6.8,2.3,2.3,0,0,1,2.887-.754c.638.286.985.057,1.359-.428,2.262-2.945,5.257-3.443,8.165-1.165,2.569,2.013,5.111,4.112,6.353,7.317a1.219,1.219,0,0,0,.739.607,2.434,2.434,0,0,1,1.9,2.347,35.1,35.1,0,0,1-.311,4.452.533.533,0,0,1-.223.386c-1.246.577-1.116,1.767-1.3,2.825-.118.682-.276,1.356-.417,2.034-.123.59-.452,1.108-1.065.84-.262-.114-.42-.851-.351-1.259a21.187,21.187,0,0,1,.709-2.409,3.828,3.828,0,0,0,.087-.6c-4.378,1.07-8.716,2.039-12.984,3.252-.837.238-1.456,1.38-2.084,2.177-.614.779-1.084,1.67-1.674,2.47-.168.228-.536.307-.813.454-.127-.335-.443-.743-.348-.993.393-1.028.91-2.008,1.386-3,.064-.134.149-.258.28-.484" transform="translate(-77.52 0.001)"/>
        <path id="Path_88529" data-name="Path 88529" d="M587.767,546.122a1.535,1.535,0,0,1,1.922-.978c2.392.549,4.784,1.132,7.206,1.505a43.532,43.532,0,0,0,4.793.271c.594.369,1.1.715,1.637,1a2.044,2.044,0,0,0,.717.083c0-.239.07-.52-.029-.708-.267-.505-.609-.971-.921-1.453l-.341.213,1.1-1.253,1.938.237-.812-1.859.811-1.328,1.893.544.235-.416-1.393-1.542.742-1.233,1.893.725.274-.427-1.488-1.59A10.9,10.9,0,0,1,611.487,534a5.169,5.169,0,0,1,6.331.828,1.271,1.271,0,0,1,.2,1.113c-.864,2.423-1.8,4.821-2.7,7.229-.459,1.222-.856,2.469-1.365,3.67-1.618,3.82-3.227,7.647-4.953,11.418-.405.885-.572,2.336-2.181,2.024-.45-.087-.873-.3-1.317-.426-3.32-.937-6.652-1.835-9.961-2.809-1.95-.574-3.891-1.2-5.786-1.934a1.741,1.741,0,0,1-1.079-2.272,4.348,4.348,0,0,0-.644-4.127c-.44-.619-.175-1.74-.229-2.634l-.03.038m9.847.987c-.273.958-.7,1.842.323,2.5.117.075.611-.188.723-.4.451-.868.128-1.528-1.046-2.1m-3.017-.364a19.423,19.423,0,0,0,.291,2.234c.022.092.818.187.917.044.574-.826.192-1.734-1.208-2.279m5.428.48c.307.884.525,1.585.824,2.251.028.062.76-.019.83-.181.281-.641-.527-1.826-1.654-2.07" transform="translate(-451.556 -409.69)"/>
        <path id="Path_88530" data-name="Path 88530" d="M134.485,475.878c.168.123.364.2.456.346,2.079,3.25,5.349,4.944,8.623,6.637a89.8,89.8,0,0,0,18.366,6.74c6.724,1.787,13.328,4.017,20.027,5.9,8.776,2.469,17.6,4.767,26.39,7.184,4.149,1.141,8.262,2.414,12.4,3.58,2.518.709,5.061,1.325,7.593,1.988.334.087.79.1.962.327a2.634,2.634,0,0,1,.439,1.284,1.4,1.4,0,0,1-.954.329c-2.759-.689-5.514-1.4-8.248-2.181-3.317-.949-6.6-2.011-9.92-2.954-4.683-1.331-9.394-2.563-14.076-3.9q-15.847-4.521-31.678-9.1c-1.587-.456-3.189-.858-4.773-1.323-6.152-1.806-12.258-3.714-17.913-6.849-2.706-1.5-5.427-2.941-7.2-5.593-.445-.667-1.239-1.392-.5-2.421" transform="translate(-103.088 -365.597)"/>
        <path id="Path_88531" data-name="Path 88531" d="M176.017,174.113a6.174,6.174,0,0,1,2.024.191,17.771,17.771,0,0,1,7.072,5.913,37.339,37.339,0,0,1,5.956,12.995c.36,1.493.864,2.952,1.219,4.446a3.615,3.615,0,0,1-.193,1.293c-.412-.309-1.061-.538-1.2-.94-1.017-3.021-1.839-6.108-2.9-9.112a27.634,27.634,0,0,0-6.2-10.314c-1.423-1.447-3.36-2.389-5.067-3.554-.26-.178-.538-.331-.807-.5l.1-.422" transform="translate(-135.15 -133.764)"/>
        <path id="Path_88532" data-name="Path 88532" d="M169.669,93.469c2.689-.527,2.2-2.479,2.17-4.211-.02-1.064-.1-2.127-.152-3.224-.92.257-1.679.526-2.462.66a2.849,2.849,0,0,1-1.072-.269c.174-.333.279-.882.533-.964,1.6-.514,3.234-.958,4.876-1.337.311-.072.713.248,1.236.451-.808.524-1.711.792-1.93,1.336a2.609,2.609,0,0,0,.454,2.035c.317.322.789.6.89.981.059.222-.477.6-.745.909l-.338-.218a11.989,11.989,0,0,0,.007,1.345c.277,2.442-.427,2.254-2.047,3.154-.294.163-.817-.089-1.235-.149l-.184-.5" transform="translate(-129.185 -64.621)"/>
        <path id="Path_88533" data-name="Path 88533" d="M392.265,375.477c1.693-.545,3.371-1.141,5.083-1.616a23.957,23.957,0,0,1,3.5-.653c.335-.041.715.283,1.074.439-.278.256-.515.65-.84.745-2.46.719-4.928,1.414-7.417,2.025-.41.1-.93-.244-1.4-.384q0-.278,0-.557" transform="translate(-301.36 -286.717)"/>
        <path id="Path_88534" data-name="Path 88534" d="M12.827,516.608a14.508,14.508,0,0,0-1.763,1.358c-.845.874-1.568,1.864-2.4,2.753-.2.217-.622.233-.942.342-.058-.309-.263-.694-.15-.915.888-1.729,1.98-3.3,3.938-3.949a4.134,4.134,0,0,1,1.247-.018l.069.43" transform="translate(-5.793 -396.525)"/>
        <path id="Path_88535" data-name="Path 88535" d="M5.406,511.636c-.861.8-1.532,1.352-2.122,1.983-.542.58-.97,1.266-1.5,1.854a3.409,3.409,0,0,1-.889.518c-.12-.329-.425-.73-.33-.977a6.413,6.413,0,0,1,3.54-3.6c.279-.124.717.109,1.305.22" transform="translate(-0.417 -392.872)"/>
        <path id="Path_88536" data-name="Path 88536" d="M564.728,611.771c2.013-.049,3.981.923,4.376,2.113-1.381.381-4.179-.925-4.376-2.113" transform="translate(-433.857 -469.997)"/>
        <path id="Path_88537" data-name="Path 88537" d="M171.6,148.9c-.166-.438-.5-.9-.383-1.1a1.7,1.7,0,0,1,1.046-.677c.212-.045.516.339.778.53L171.6,148.9" transform="translate(-131.521 -113.024)"/>
        <path id="Path_88538" data-name="Path 88538" d="M170,106.938a2.96,2.96,0,0,1-1.036.368c-.23-.008-.652-.407-.626-.577a1.223,1.223,0,0,1,.6-.777c.129-.068.473.271.72.426l.346.56" transform="translate(-129.328 -81.391)"/>
      </g>
    </g>
    <g id="Group_3440" data-name="Group 3440" transform="translate(21.449 -38.336)">
      <g id="Group_3431" data-name="Group 3431" transform="translate(229.551 364.279)">
        <g id="Group_2817" data-name="Group 2817" transform="translate(0.001 0.001)" clip-path="url(#clip-path-2)">
          <path id="Path_9438" data-name="Path 9438" d="M23.115,19.129l2.371,1.943.411-.309-1.37-2.822c1.276-.9,1.806,1.24,3.015.877.384-1.174-.933-1.409-1.348-2.289,1.123-1.555,2.312-3.124,3.415-4.752.88-1.3.468-2.439-1.075-2.469a3.928,3.928,0,0,1-3.62-2.2,6.218,6.218,0,0,0-2.554-2.017,3.712,3.712,0,0,1-1.895-2.409c-.2-.582-.314-1.2-.546-1.764-.419-1.026-1.4-1.244-2.09-.389a8.224,8.224,0,0,0-1.347,2.391A4.528,4.528,0,0,1,14.651,5.3,25.092,25.092,0,0,0,12.34,7.309L9.111,5C9,6.252,9.868,6.582,10.382,7.145c.477.522,1.331.746,1.549,1.806L8.1,7.009l-.252.246a3.152,3.152,0,0,0,.569.915c.783.606,1.649,1.1,2.429,1.713a1.306,1.306,0,0,1,.491.923,7.469,7.469,0,0,1-3.577,5.8c-1.907,1.325-4.1,2.266-5.594,4.139A9.456,9.456,0,0,0,.132,25.817,37.8,37.8,0,0,0,.6,35.336c.208,1.351.4,2.706.539,4.066.262,2.611,2.375,3.515,4.289,3.584A15.648,15.648,0,0,0,8.2,42.823c2.911-.419,5.654.42,8.42,1.065,1.219.284,2.356.314,3.156-.807A3.821,3.821,0,0,0,19.669,39a6.006,6.006,0,0,0-6.426-1.737c-1.171.483-2.284,1.138-3.488,1.5a6.3,6.3,0,0,1-2.59.273,14.254,14.254,0,0,0-3.191.307c.038,1.136.558,1.631,1.733,1.636a14.424,14.424,0,0,0,6.717-1.633,5.766,5.766,0,0,1,4.6-.219,2.721,2.721,0,0,1,.978.55c.608.569,1.226,1.2.789,2.139-.423.909-1.286.562-1.921.446a35.116,35.116,0,0,0-3.675-.934c-2.177-.153-4.374-.026-6.562-.018-.513,0-1.029.031-1.539-.01A2,2,0,0,1,2.932,39.49a38.277,38.277,0,0,1-.608-3.958,32.657,32.657,0,0,1,.21-10.045,8.83,8.83,0,0,1,3.853-5.644c.715-.473,1.42-.964,2.157-1.4a10.333,10.333,0,0,0,4.823-7.153c.646.336,1.186.659,1.761.9.447.188,1,.818,1.348-.182.034-.1.52-.039,1.067-.067-.427-.426-.684-.7-.963-.955-.382-.346-.775-.68-1.173-1.007-1.79-1.467-1.972-1.678-.23-3.158a10.7,10.7,0,0,0,3.379-5.174c.008-.024.055-.036.216-.136.056.43.118.8.152,1.179A3.122,3.122,0,0,0,20.8,5.521c1.642.768,3.255,1.594,3.953,3.522.16.443.928.728,1.471.952a8.823,8.823,0,0,0,1.745.307l-3.089,5.366-4.217-1.924-.228.4,3.062,2.268c-.606.66-.606.66-3.087-1.647-.493.623-.24,1.112.221,1.584.427.438.845.885,1.258,1.317-.073.113-.1.2-.148.222-3.042,1.175-2.9,3.816-2.727,6.3.256,3.585.712,7.159,1.184,10.725a22.171,22.171,0,0,0,.948,3.317c.049.164.19.32.184.476-.06,1.588,1.013,1.892,2.26,2.089.927.146,1.835.41,2.752.621l-.036.307L21.4,41.492l-.128.288c.369.242.73.676,1.108.691a31.088,31.088,0,0,0,4.467-.081A1.71,1.71,0,0,0,28,41.316c.076-.294-.5-.938-.925-1.144a12.67,12.67,0,0,0-2.983-1.07,1.48,1.48,0,0,1-1.364-1.374c-.337-2.231-.74-4.453-1-6.692-.288-2.451-.494-4.915-.637-7.378a13.063,13.063,0,0,1,.32-2.529,2.332,2.332,0,0,1,1.706-2" transform="translate(0 0)"/>
          <path id="Path_9439" data-name="Path 9439" d="M74.213,123.011c-1.051.479-1.047,1.369-.987,2.219.17,2.42.391,4.836.592,7.254a1.077,1.077,0,0,0,.036.407c.256.454.528,1.257.816,1.266.736.024.98-.71.912-1.345-.328-3.056-.707-6.106-1.084-9.156a2.524,2.524,0,0,0-.284-.644" transform="translate(-60.661 -97.582)"/>
          <path id="Path_9440" data-name="Path 9440" d="M62.163,132.006c.711-1.514.168-10.493-.649-11.222-1.149,1-.87,2.345-.855,3.612.024,1.953.085,3.907.145,5.859.031,1,.247,1.268,1.359,1.75" transform="translate(-44.96 -95.816)"/>
          <path id="Path_9441" data-name="Path 9441" d="M48.924,59.957l1.914-1.182c-.524-.523-.837-1.315-1.728-.938-.5.21-.572,1.6-.187,2.12" transform="translate(-30.838 -45.803)"/>
          <path id="Path_9442" data-name="Path 9442" d="M54.677,42.574a5.007,5.007,0,0,0,1.253.654c.149.027.592-.537.541-.628a1.984,1.984,0,0,0-.842-.839c-.132-.058-.493.407-.953.814" transform="translate(-37.714 -33.124)"/>
          <path id="Path_9443" data-name="Path 9443" d="M34.684,57.994a5.577,5.577,0,0,0,1.156.638c.1.025.482-.459.431-.592a1.309,1.309,0,0,0-.665-.715c-.15-.055-.457.316-.922.669" transform="translate(-13.381 -45.471)"/>
        </g>
      </g>
    </g>
  </g>
</svg>
