<svg width="32" height="32" viewBox="0 0 32 32" fill="none" xmlns="http://www.w3.org/2000/svg">
<g clip-path="url(#clip0_1263_2303)">
<path d="M13.334 6.66667C13.334 5.95942 13.6149 5.28115 14.115 4.78105C14.6151 4.28095 15.2934 4 16.0007 4C16.7079 4 17.3862 4.28095 17.8863 4.78105C18.3864 5.28115 18.6673 5.95942 18.6673 6.66667C20.1985 7.3907 21.5039 8.51777 22.4434 9.92707C23.3829 11.3364 23.9212 12.9748 24.0007 14.6667V18.6667C24.101 19.4956 24.3946 20.2894 24.8577 20.9842C25.3209 21.6789 25.9407 22.2552 26.6673 22.6667H5.33398C6.06057 22.2552 6.6804 21.6789 7.14357 20.9842C7.60674 20.2894 7.90031 19.4956 8.00065 18.6667V14.6667C8.08006 12.9748 8.61839 11.3364 9.55792 9.92707C10.4974 8.51777 11.8028 7.3907 13.334 6.66667Z" stroke="#222222" stroke-width="1.5" stroke-linecap="round" stroke-linejoin="round"/>
<path d="M12 22.667V24.0003C12 25.0612 12.4214 26.0786 13.1716 26.8288C13.9217 27.5789 14.9391 28.0003 16 28.0003C17.0609 28.0003 18.0783 27.5789 18.8284 26.8288C19.5786 26.0786 20 25.0612 20 24.0003V22.667" stroke="#222222" stroke-width="1.5" stroke-linecap="round" stroke-linejoin="round"/>
</g>
<defs>
<clipPath id="clip0_1263_2303">
<rect width="32" height="32" fill="white"/>
</clipPath>
</defs>
</svg>
