<svg xmlns="http://www.w3.org/2000/svg" width="189.817" height="34.199" viewBox="0 0 189.817 34.199">
  <g id="Group_5091" data-name="Group 5091" transform="translate(4501 2143.588)">
    <path id="Path_9244" data-name="Path 9244" d="M-66.894-20.2c0,1.014-1.035,1.705-2.963,1.705a17.182,17.182,0,0,1-8.514-2.858v5.946a18.675,18.675,0,0,0,8.561,1.982c6.35,0,9.831-3.18,9.831-7.374,0-2.95-1.552-5.024-5.362-6.268l-4.939-1.613c-1.176-.369-1.74-.968-1.74-1.659,0-.968.847-1.659,2.634-1.659a14.512,14.512,0,0,1,7.808,2.581v-6.038a16.452,16.452,0,0,0-7.667-1.8c-5.832,0-9.5,3.042-9.5,7.559,0,3.088,1.976,5.208,5.221,6.222l4.562,1.429C-67.412-21.539-66.894-20.986-66.894-20.2Zm21.966-10.785c2.446,0,3.857,1.659,3.857,4.1v13.043h7.432V-28.314a4.909,4.909,0,0,0-.047-.83,5.629,5.629,0,0,1,4.327-1.844c2.446,0,3.857,1.659,3.857,4.1v13.043h7.432V-28.314c0-5.254-3.01-9.034-8.749-9.034a9.747,9.747,0,0,0-8.043,3.918c-1.364-2.443-3.857-3.918-7.385-3.918a9.268,9.268,0,0,0-7.1,3v-2.489h-7.244v23h7.432V-29.19A5.623,5.623,0,0,1-44.929-30.988Zm30.2,5.715c0,6.867,5.5,11.891,12.653,11.891S10.809-18.5,10.809-25.411C10.809-32.278,5.4-37.3-1.844-37.3-9.04-37.3-14.732-32.186-14.732-25.273Zm18.3,0c0,3.5-2.352,5.946-5.5,5.946s-5.55-2.443-5.55-5.946,2.4-5.946,5.55-5.946S3.565-28.775,3.565-25.273ZM14.2-13.842h7.479V-47.58L14.2-46.8Zm12.135,0h7.479V-47.58l-7.479.784Z" transform="translate(-4422.252 -2096.007)" fill="#ffffff"/>
    <path id="Path_9245" data-name="Path 9245" d="M-26.918-109.881H-27.9v1.8h.984a2.321,2.321,0,0,0,1.168-.207.8.8,0,0,0,.319-.723.706.706,0,0,0-.36-.657A2.324,2.324,0,0,0-26.918-109.881Zm.129-.448A2.889,2.889,0,0,1-25.24-110a1.124,1.124,0,0,1,.495,1.013,1.2,1.2,0,0,1-.325.855,1.361,1.361,0,0,1-.864.407l1.113,2.255h-.767l-1.066-2.164H-27.9v2.164h-.674v-4.855Zm3.731,2.491a3.716,3.716,0,0,0-.287-1.449,3.729,3.729,0,0,0-.826-1.22,3.844,3.844,0,0,0-1.259-.829,3.932,3.932,0,0,0-1.488-.284,3.885,3.885,0,0,0-1.473.281,3.7,3.7,0,0,0-1.227.809,3.947,3.947,0,0,0-.852,1.251,3.64,3.64,0,0,0-.3,1.44,3.609,3.609,0,0,0,.293,1.432,3.784,3.784,0,0,0,.843,1.225,3.91,3.91,0,0,0,1.25.829,3.783,3.783,0,0,0,1.461.29,3.837,3.837,0,0,0,1.473-.293,4,4,0,0,0,1.274-.838,3.619,3.619,0,0,0,.829-1.2A3.679,3.679,0,0,0-23.058-107.838Zm-3.859-4.2a4.378,4.378,0,0,1,1.654.316,4.192,4.192,0,0,1,1.391.918,3.991,3.991,0,0,1,.919,1.349,4.171,4.171,0,0,1,.316,1.613,4.107,4.107,0,0,1-.313,1.607,3.961,3.961,0,0,1-.922,1.331,4.445,4.445,0,0,1-1.414.933,4.245,4.245,0,0,1-1.631.324,4.218,4.218,0,0,1-1.622-.318,4.276,4.276,0,0,1-1.388-.927,4.123,4.123,0,0,1-.937-1.354,4.035,4.035,0,0,1-.322-1.6,4.041,4.041,0,0,1,.328-1.6,4.359,4.359,0,0,1,.943-1.383,4.05,4.05,0,0,1,1.359-.9A4.337,4.337,0,0,1-26.918-112.033Z" transform="translate(-4353.499 -2031.555)" fill="#ffffff"/>
    <path id="Path_91970" data-name="Path 91970" d="M12.1,42.32c5.362,0,8.724-3.009,9.924-7.651l-1.9-.464c-.992,3.858-3.682,6.307-8.019,6.307-5.666,0-8.58-4.194-8.515-10.2.048-6,2.849-10.2,8.515-10.2,4.338,0,7.027,2.449,8.019,6.307l1.9-.464c-1.2-4.642-4.562-7.651-9.924-7.651-6.9,0-10.484,4.946-10.484,12S5.205,42.32,12.1,42.32Zm18.44,0a7.439,7.439,0,0,0,6.739-3.489V41.84h1.681V31.067A10.457,10.457,0,0,0,38.5,27.61c-.848-2.225-3.105-3.537-6.275-3.537-3.746,0-6.195,1.745-6.979,4.882l1.889.528c.672-2.465,2.385-3.633,5.026-3.633,3.6,0,4.962,1.7,4.978,5.218-2.049.256-5.474.624-8,1.184-2.513.592-4.546,2.049-4.546,4.978C24.589,39.951,26.558,42.32,30.544,42.32Zm.1-1.7c-3.105,0-4.162-1.793-4.162-3.377,0-2.113,1.761-3.025,3.281-3.425a55.872,55.872,0,0,1,7.363-1.056,16.609,16.609,0,0,1-.192,2.753C36.482,38.606,34.161,40.623,30.64,40.623ZM43.125,41.84h1.857V33.276c0-2.1.128-4.546,1.9-6.082a4.825,4.825,0,0,1,4.338-.9V24.553a5.619,5.619,0,0,0-6.419,2.721V24.553H43.125Zm17.943.48a7.974,7.974,0,0,0,7.507-4.674l-1.665-.736a6.246,6.246,0,0,1-5.874,3.617c-3.73,0-5.906-2.481-6.066-6.8H68.944c.08-6.066-2.865-9.652-7.907-9.652-4.962,0-8.051,3.489-8.051,9.156C52.985,38.8,56.106,42.32,61.068,42.32Zm0-16.5c3.489,0,5.522,2.177,5.89,6.243H55C55.338,28.074,57.483,25.817,61.068,25.817Z" transform="translate(-4380.128 -2151.88)" fill="#ffffff"/>
  </g>
</svg>