<svg xmlns="http://www.w3.org/2000/svg" xmlns:xlink="http://www.w3.org/1999/xlink" width="314.951" height="314.588" viewBox="0 0 314.951 314.588">
  <defs>
    <clipPath id="clip-path">
      <rect id="Rectangle_4714" data-name="Rectangle 4714" width="314.951" height="284.934" fill="none"/>
    </clipPath>
    <clipPath id="clip-path-2">
      <rect id="Rectangle_964" data-name="Rectangle 964" width="56.866" height="83.33"/>
    </clipPath>
  </defs>
  <g id="Group_3666" data-name="Group 3666" transform="translate(-7753.689 -10671.682)">
    <g id="Group_3661" data-name="Group 3661" transform="translate(7753.689 10671.682)">
      <g id="Group_3429" data-name="Group 3429" clip-path="url(#clip-path)">
        <path id="Path_88526" data-name="Path 88526" d="M40.849,134.882l-1.179-2.853.395-.591,3.057,1.386c5.566-4.278,7.859-10.806,10.356-16.858a32.378,32.378,0,0,1-5.022-2.329,5.164,5.164,0,0,1,0-8.264,6.454,6.454,0,0,1,2.2-.557l.3.6c-.48.672-.983,1.327-1.434,2.018-1.537,2.357-.667,4.644,2.051,5.417.981.28,1.954.6,2.952.8,1.833.362,1.983,1.535,1.4,2.941-1.385,3.346-2.657,6.762-4.347,9.952a47.8,47.8,0,0,1-4.739,6.674,10.615,10.615,0,0,1-2.327,1.642,25.119,25.119,0,0,0,10.851,4.805c4.265.68,8.559,1.138,12.675-.656a24.343,24.343,0,0,0,4.075-2.473c1.116-.779,1.13-1.379-.22-2.216-.944-.585-1.435-1.9-2.128-2.892-.327-.467-.666-.926-.975-1.4-.275-.427-.516-.875-.772-1.314a3.792,3.792,0,0,1,1.336-.423c7.409.664,11.845-2.174,14.067-9.162.769-2.418,1.367-4.892,2.182-7.293.227-.67.949-1.173,1.443-1.753.212.7.764,1.505.582,2.078a113.342,113.342,0,0,1-4.617,13.285c-1.579,3.415-5.1,4.514-8.745,4.9a6.849,6.849,0,0,0-1.913.855c.542.516,1,1.224,1.642,1.514,2.052.923,2.442,2.8.931,4.542-3.428,3.945-8.072,4.666-12.866,4.823A31.434,31.434,0,0,1,43.069,136.9c-9.01,4.625-14.9,12.089-19.968,20.235-3.808,6.124-5.566,13.05-6.577,20.15-.517,3.629-1.176,7.259-1.362,10.909-.291,5.723-.406,11.466-.284,17.193q.233,10.863.988,21.713c.748,10.807,2.315,21.5,5.819,31.8a13.8,13.8,0,0,0,2.724,4.43,7.279,7.279,0,0,1,1.863,6.4c-.915,5.391-.887,5.386,4.6,5.579,1.451.051,3.295.75,4.23.1.817-.567.513-2.637.89-3.992a4.475,4.475,0,0,1,1.289-2.435c2.613-1.772,3.545-4.478,3.963-7.261.758-5.035,1.371-10.116,1.624-15.2.486-9.756.656-19.527,1-29.291q.393-11.151.921-22.3a10.246,10.246,0,0,1,.854-2.6l.938-.034c.391,1.068,1.113,2.136,1.115,3.205.006,3.92-.239,7.84-.368,11.761-.288,8.771-.54,17.543-.853,26.313-.282,7.905-.626,15.808-.945,23.74,3.128,1.929,6.431,3.874,9.629,5.98,1.387.913,2.461.482,3.566-.294,4.469-3.14,8.975-6.233,13.367-9.477q16.88-12.469,33.667-25.063c1.275-.953,2.445-2.046,3.6-3.022l-2.986-7.12,1.012-.563,3.3,4.56,3.725-4.237a31.417,31.417,0,0,1-2.548-4.877,3.166,3.166,0,0,0-3.017-2.6,6.212,6.212,0,0,0-.865-.119c-5.089.346-5.986-2.812-4.535-7.062,2.466-7.228,5.1-14.4,7.618-21.61.932-2.667,2.637-4.411,5.522-4.518a106.838,106.838,0,0,1,11.115-.014c2.911.2,4.432,2.329,3.772,5.186-.844,3.655-2.068,7.222-3.034,10.508,1.063-.217,2.751-.993,3.177-.551a5.458,5.458,0,0,1,.949,3.5,35.913,35.913,0,0,1-.65,4.98c2.793-2.514,5.528-4.759,8.013-7.253a121.7,121.7,0,0,1,24.064-18.781,34.537,34.537,0,0,1,5.715-2.69c6.594-2.424,11.825-.413,15.792,5.408,3.794,5.567,4.786,11.935,5.946,18.285a127.577,127.577,0,0,1,1.95,12.664c.572,7.16.772,14.349,1.129,21.527.049.987.043,2.209-1.291,1.912a2.8,2.8,0,0,1-1.673-2.017c-.56-7.486-.534-15.041-1.523-22.463-1.084-8.127-2.913-16.169-4.752-24.171a17.558,17.558,0,0,0-3.416-6.272c-2.816-3.7-7.621-4.5-11.845-2.369-10.267,5.189-19.24,12.148-27.527,20.049-3.676,3.505-7.361,7-10.955,10.592-.547.546-.6,1.575-.914,2.366a53.323,53.323,0,0,1-2.716,6.526,7.34,7.34,0,0,1-6.5,3.723c-2.108.079-4.106.412-5.417,2.5a31.13,31.13,0,0,1-2.923,3.244c-.58.683-1.882,1.127-.972,2.483.094.141-.436.842-.8,1.127-7.374,5.79-14.715,11.623-22.169,17.308-6.4,4.88-12.9,9.627-19.415,14.351-3.112,2.256-6.454,4.2-9.519,6.516-2.154,1.626-4.126,1.174-6.071.015-2.49-1.484-4.849-3.189-7.269-4.791-.473-.313-.968-.595-1.455-.893-.876,2.239-1.615,4.423-2.59,6.5a8.135,8.135,0,0,1-2.122,2.635c-1.484,1.248-2.513,2.539-2.156,4.652.512,3.039.622,6.166,1.362,9.142a11.863,11.863,0,0,1-6.465,13.388,25.61,25.61,0,0,1-6.909,1.98,10.208,10.208,0,0,1-4.41-.612c-.644-.2-1.525-1.223-1.457-1.768a4,4,0,0,1,1.478-2.389,29.033,29.033,0,0,1,2.806-1.341c-3.48-.829-6.33.607-9.048,2.477-1.017.7-1.889,1.789-3,2.127-1.182.359-2.9.514-3.791-.1-1.264-.866-1.137-2.435-.082-3.839,1.884-2.51,3.977-4.683,7.222-5.225a9.907,9.907,0,0,1,2.624.352l-8.067,6.105.294.285c2.888-1.365,5.676-3.046,8.692-4.009a11.345,11.345,0,0,1,9.423,1.125c-.911,3.246-4.156,2.73-6.023,4.59a8.441,8.441,0,0,0,2.561-.04c2.653-.89,5.5-1.552,7.812-3.032,3.672-2.355,4.718-6.071,3.664-10.33-1.15-4.645-1.143-4.64-5.986-4.866-1.31-.061-2.617-.213-3.927-.238-.63-.012-1.469-.049-1.861.309-1.631,1.5-3.458,1.26-5.362.925-7.29-1.282-13.571-.008-17.736,6.874-.347.574-1.358.747-2.06,1.106a6.265,6.265,0,0,1-.21-2.337c1.3-4.041,7.241-8.029,12.09-8.057,2.825-.016,5.654.4,8.477.361a7.269,7.269,0,0,0,2.656-.946c-.155-2.514-.405-4.42-.352-6.318a6.945,6.945,0,0,0-1.6-5.022c-3.418-4.1-3.955-9.3-5.06-14.253a151.445,151.445,0,0,1-3.586-28.8c-.211-7.576-1.033-15.17-.7-22.718.409-9.278.638-18.642,2.977-27.735,2.758-10.716,7.619-20.324,15.6-28.1,2.533-2.469,5.635-4.354,8.482-6.5.574-.433,1.173-.835,1.8-1.276m89.676,60.423-.39,0c-.96,1.429-1.846,2.915-2.909,4.262a10.62,10.62,0,0,1-2.087,1.614,12.1,12.1,0,0,1-1.483-2.386,28.736,28.736,0,0,1-.791-3.758l-.416.106-2.907,9L114.1,198.15l-.634.176c.192,1.572.255,3.173.6,4.71.96,4.251.417,4.91-4.055,4.584-.944-.069-1.887-.151-2.833-.192-.718-.031-1.439-.006-2.159-.006q0,.313-.006.626c.52.092,1.036.22,1.56.269,3.825.35,6.912,1.563,7.828,5.9A2.859,2.859,0,0,0,116.471,216a19.114,19.114,0,0,0,6.405-.869,6.679,6.679,0,0,0,4.691-5.262c.6-3.571,1.464-7.1,2.2-10.645.27-1.3.5-2.612.756-3.918" transform="translate(0 -58.871)"/>
        <path id="Path_88527" data-name="Path 88527" d="M419.782,454.347a6.328,6.328,0,0,1-2.369.354c-1.938-.505-3.811-1.259-5.637-1.889l-7.165,18.625c-2.421-.471-2.342-1.9-1.794-3.357,1.789-4.771,3.686-9.5,5.483-14.268.741-1.967,1.334-3.99,1.951-5.856l-6.76-2.8c-3.269,5.824-4.071,12.7-7.751,18.328-2.149-.771-1.778-2.171-1.273-3.48,2.04-5.282,4.138-10.542,6.278-15.972a17.525,17.525,0,0,0-1.718-.913c-12.11-4.961-24.193-9.99-36.35-14.835-12.294-4.9-24.678-9.575-36.989-14.433-3.585-1.415-7.038-3.159-10.581-4.685-5.4-2.326-10.828-4.592-16.244-6.885-2.923-1.237-5.859-2.443-8.763-3.722-1.631-.719-2.066-2.921-.741-4.923,1.888-2.851,3.969-5.577,6.03-8.309a315.006,315.006,0,0,1,26.735-31.486,26.311,26.311,0,0,1,4.164-3.513c2.386-1.578,4.708-.5,5.063,2.367.263,2.125.153,4.3.223,6.447.171,5.239.361,10.478.518,15.717.025.846-.079,1.7-.153,3.105,5.333-1.837,10.457-3.6,15.584-5.366a60.894,60.894,0,0,1,6.009-1.958c.693-.159,1.581.534,2.38.837-.536.531-.979,1.331-1.622,1.553-7.1,2.45-14.225,4.826-21.357,7.182-1.627.537-2.506-.266-2.467-2.09,0-.189.007-.5-.1-.554-2.061-1.135-1.26-3.1-1.279-4.728-.066-5.691.014-11.384.005-17.076,0-1.208-.15-2.415-.277-4.317-15.061,13.137-25.824,29.121-38.113,44.385l42.732,18.177c0-1.775,0-3.137,0-4.5-.009-7.285-.056-14.57,0-21.855a36.113,36.113,0,0,1,.587-5.428c.085-.528.618-.983.945-1.471.474.467,1.334.918,1.353,1.4.071,1.8-.136,3.616-.233,5.425-.015.285,0,.573,0,1.038,2.382.17,4.475.27,6.4-1.69,1.366-1.389,3.367-2.151,5.134-3.223a21.308,21.308,0,0,1-.412-3.632,27.626,27.626,0,0,1,.744-4.078c2.211,1.189,2.743,4.2,1.525,8.176,4.4,1.686,3.626,5.451,3.625,8.678l-4.512,1.669q.074.521.148,1.042l4.638.694c.044.653.095,1.419.139,2.1a13.753,13.753,0,0,0-2.9.054c-.54.124-.96.778-1.434,1.194a20.116,20.116,0,0,0,1.777,1.264c.189.109.567-.058.839-.153,1.529-.531,2.4-.093,2.41,1.521l-4.859,1.178c1.56,2.534,3.208,2.493,5.164,1.233l1.357,2.3a14.03,14.03,0,0,0-2.41.68c-.491.237-.827.795-1.232,1.21.518.437,1.034,1.236,1.556,1.24a23.67,23.67,0,0,0,3.839-.554c.546-.087,1.095-.16,2.061-.3a11.232,11.232,0,0,0-1.475,2.217,1.773,1.773,0,0,0,.375,1.487c.33.35,1.207.7,1.458.515a22.874,22.874,0,0,0,2.446-2.339c.33-.326.67-.641,1-.961l.376.42a15.988,15.988,0,0,0-.172,2.92c.044.406.722.744,1.112,1.113.313-.349.795-.653.9-1.056a21.185,21.185,0,0,0,.406-2.686q16.194,2.008,14.865,15.653l-12.519.676c-.025.117-.05.234-.074.35,3.42,1.375,6.845,2.737,10.259,4.128,9.624,3.924,19.265,7.806,28.844,11.837a15.757,15.757,0,0,1,5.013,3.337c.649.658.28,2.319.356,3.3l6.861,4.283.057-.072" transform="translate(-162.082 -196.359)"/>
        <path id="Path_88528" data-name="Path 88528" d="M115.536,41.3c-2.467.355-4.749.638-7.015,1.021-3.973.672-6.476-.766-7.234-4.7-.693-3.595-.6-7.058,1.556-10.48,1.232-1.96,1.138-4.745,1.679-7.151a29.126,29.126,0,0,1,6.662-12.858c1.51-1.736,3.317-2.388,5.461-1.426,1.207.542,1.864.109,2.57-.81,4.278-5.571,9.944-6.513,15.444-2.2,4.86,3.808,9.668,7.777,12.017,13.84a2.305,2.305,0,0,0,1.4,1.148,4.6,4.6,0,0,1,3.6,4.439,66.386,66.386,0,0,1-.587,8.421,1.007,1.007,0,0,1-.421.729c-2.356,1.091-2.111,3.342-2.457,5.344-.224,1.289-.522,2.565-.789,3.846-.233,1.115-.854,2.1-2.015,1.589-.5-.216-.794-1.61-.664-2.382a40.066,40.066,0,0,1,1.34-4.557,7.236,7.236,0,0,0,.165-1.135c-8.28,2.024-16.485,3.857-24.56,6.151-1.583.45-2.755,2.609-3.942,4.117-1.161,1.474-2.05,3.16-3.167,4.672-.318.43-1.015.581-1.538.859-.24-.634-.839-1.406-.658-1.879.743-1.944,1.722-3.8,2.621-5.682.121-.253.281-.488.53-.915" transform="translate(-56.673 0.001)"/>
        <path id="Path_88529" data-name="Path 88529" d="M587.768,557.578a2.9,2.9,0,0,1,3.636-1.849c4.525,1.039,9.049,2.141,13.631,2.847a82.331,82.331,0,0,0,9.066.513c1.123.7,2.078,1.353,3.1,1.889a3.865,3.865,0,0,0,1.356.158c-.009-.451.133-.983-.056-1.339-.5-.956-1.151-1.837-1.741-2.748l-.644.4,2.076-2.371,3.666.448-1.536-3.516,1.534-2.511,3.581,1.029.444-.786-2.635-2.917,1.4-2.332,3.58,1.371.518-.808-2.814-3.008c1.689-2.683,3.561-5.538,6.705-7.394,4.082-2.409,8.632-1.543,11.975,1.567a2.4,2.4,0,0,1,.373,2.1c-1.635,4.582-3.4,9.119-5.112,13.675-.868,2.311-1.619,4.671-2.581,6.942-3.06,7.226-6.1,14.463-9.369,21.6-.766,1.674-1.082,4.418-4.126,3.828-.85-.165-1.652-.568-2.491-.806-6.28-1.772-12.582-3.47-18.841-5.314-3.689-1.087-7.36-2.273-10.945-3.658a3.294,3.294,0,0,1-2.04-4.3,8.224,8.224,0,0,0-1.219-7.807c-.833-1.171-.33-3.292-.432-4.982l-.057.072m18.626,1.867c-.517,1.812-1.32,3.485.611,4.725.221.141,1.156-.355,1.367-.76.853-1.641.241-2.89-1.978-3.965m-5.707-.689a36.751,36.751,0,0,0,.551,4.226c.041.174,1.547.353,1.734.084,1.085-1.563.363-3.28-2.285-4.31m10.267.908c.581,1.672.994,3,1.558,4.258.052.117,1.437-.037,1.571-.342.531-1.212-1-3.454-3.128-3.916" transform="translate(-330.126 -299.518)"/>
        <path id="Path_88530" data-name="Path 88530" d="M134.754,475.878c.317.233.689.381.863.654,3.932,6.147,10.117,9.352,16.311,12.555,11.045,5.711,22.737,9.559,34.739,12.75,12.717,3.38,25.21,7.6,37.882,11.165,16.6,4.67,33.289,9.016,49.916,13.589,7.848,2.158,15.627,4.566,23.463,6.772,4.763,1.341,9.574,2.507,14.361,3.761.632.165,1.494.195,1.819.618a4.982,4.982,0,0,1,.83,2.429,2.656,2.656,0,0,1-1.805.622c-5.218-1.3-10.429-2.646-15.6-4.125-6.274-1.794-12.487-3.8-18.764-5.588-8.858-2.517-17.769-4.849-26.625-7.375q-29.975-8.552-59.918-17.212c-3-.862-6.032-1.623-9.028-2.5-11.636-3.416-23.187-7.025-33.882-12.954-5.118-2.838-10.266-5.564-13.613-10.579-.841-1.261-2.343-2.633-.948-4.578" transform="translate(-75.366 -267.282)"/>
        <path id="Path_88531" data-name="Path 88531" d="M176.106,174.113c1.285.1,2.733-.148,3.828.361a33.615,33.615,0,0,1,13.377,11.185,70.626,70.626,0,0,1,11.265,24.579c.682,2.824,1.634,5.584,2.306,8.41a6.837,6.837,0,0,1-.366,2.446c-.778-.585-2.008-1.017-2.264-1.778-1.923-5.714-3.479-11.554-5.488-17.235a52.269,52.269,0,0,0-11.736-19.509c-2.692-2.737-6.355-4.518-9.585-6.723-.492-.337-1.017-.626-1.526-.938q.093-.4.188-.8" transform="translate(-98.806 -97.793)"/>
        <path id="Path_88532" data-name="Path 88532" d="M171.021,101.809c5.086-1,4.167-4.689,4.1-7.965-.039-2.013-.185-4.024-.287-6.1-1.741.486-3.177,1-4.656,1.249a5.388,5.388,0,0,1-2.028-.509c.329-.63.527-1.669,1.009-1.823,3.035-.971,6.117-1.812,9.222-2.53.589-.136,1.349.47,2.338.853-1.528.991-3.237,1.5-3.65,2.527-.468,1.162.227,2.792.858,3.849.6.609,1.493,1.139,1.683,1.856.111.419-.9,1.137-1.41,1.72l-.64-.412a22.667,22.667,0,0,0,.014,2.544c.524,4.618-.807,4.264-3.871,5.965-.555.308-1.546-.168-2.336-.281l-.349-.945" transform="translate(-94.445 -47.243)"/>
        <path id="Path_88533" data-name="Path 88533" d="M392.266,377.5c3.2-1.031,6.376-2.158,9.614-3.057a45.322,45.322,0,0,1,6.618-1.235c.634-.078,1.352.534,2.031.83-.526.484-.974,1.23-1.588,1.41-4.653,1.361-9.322,2.674-14.029,3.83-.776.191-1.76-.462-2.648-.725q0-.527,0-1.053" transform="translate(-220.32 -209.615)"/>
        <path id="Path_88534" data-name="Path 88534" d="M17.541,517.029a27.439,27.439,0,0,0-3.335,2.569c-1.6,1.653-2.967,3.525-4.538,5.207-.384.411-1.177.441-1.782.646-.109-.585-.5-1.313-.283-1.731,1.679-3.27,3.746-6.234,7.449-7.47a7.818,7.818,0,0,1,2.358-.034q.066.406.131.813" transform="translate(-4.235 -289.893)"/>
        <path id="Path_88535" data-name="Path 88535" d="M9.742,511.863c-1.628,1.507-2.9,2.557-4.013,3.751-1.026,1.1-1.834,2.395-2.846,3.507a6.447,6.447,0,0,1-1.682.98c-.227-.623-.8-1.381-.623-1.847a12.129,12.129,0,0,1,6.7-6.807c.528-.234,1.355.207,2.469.416" transform="translate(-0.305 -287.223)"/>
        <path id="Path_88536" data-name="Path 88536" d="M564.728,611.773c3.808-.092,7.53,1.745,8.277,4-2.613.72-7.9-1.749-8.277-4" transform="translate(-317.186 -343.608)"/>
        <path id="Path_88537" data-name="Path 88537" d="M171.964,150.489c-.315-.829-.946-1.7-.725-2.085a3.216,3.216,0,0,1,1.978-1.28c.4-.085.976.641,1.472,1l-2.725,2.363" transform="translate(-96.153 -82.63)"/>
        <path id="Path_88538" data-name="Path 88538" d="M171.485,107.825a5.6,5.6,0,0,1-1.959.7c-.436-.015-1.233-.771-1.184-1.091a2.313,2.313,0,0,1,1.129-1.47c.245-.129.895.513,1.361.806l.654,1.06" transform="translate(-94.55 -59.504)"/>
      </g>
    </g>
    <g id="Group_3662" data-name="Group 3662" transform="translate(7793.999 10902.939)">
      <g id="Group_3431" data-name="Group 3431" transform="translate(0 0)">
        <g id="Group_2817" data-name="Group 2817" transform="translate(0 0)" clip-path="url(#clip-path-2)">
          <path id="Path_9438" data-name="Path 9438" d="M43.722,36.182l4.484,3.675.777-.585-2.591-5.338c2.414-1.706,3.416,2.346,5.7,1.659.726-2.221-1.764-2.666-2.55-4.329,2.124-2.94,4.372-5.91,6.459-8.988,1.664-2.455.885-4.614-2.032-4.671-3.351-.065-5.164-1.449-6.848-4.161A11.762,11.762,0,0,0,42.292,9.63a7.02,7.02,0,0,1-3.584-4.557c-.379-1.1-.595-2.263-1.033-3.337C36.883-.2,35.021-.618,33.722,1a15.555,15.555,0,0,0-2.547,4.522,8.565,8.565,0,0,1-3.463,4.494,47.462,47.462,0,0,0-4.372,3.809L17.234,9.464c-.208,2.363,1.43,2.987,2.4,4.052.9.988,2.518,1.411,2.929,3.416l-7.249-3.674-.477.465a5.961,5.961,0,0,0,1.077,1.73c1.48,1.146,3.119,2.088,4.594,3.24a2.471,2.471,0,0,1,.928,1.746c-.3,4.833-2.935,8.312-6.766,10.972C11.067,33.917,6.924,35.7,4.093,39.24A17.886,17.886,0,0,0,.25,48.832a71.507,71.507,0,0,0,.878,18.006c.393,2.556.762,5.119,1.02,7.691.5,4.938,4.492,6.649,8.113,6.779A29.6,29.6,0,0,0,15.507,81c5.506-.792,10.694.795,15.927,2.014,2.307.537,4.456.594,5.969-1.526a7.228,7.228,0,0,0-.2-7.715c-2.511-3.293-8.279-4.882-12.154-3.285-2.215.913-4.32,2.152-6.6,2.835a11.915,11.915,0,0,1-4.9.517c-1.962-.234-4.021.352-6.035.581.073,2.149,1.056,3.084,3.278,3.094A27.283,27.283,0,0,0,23.5,74.428a10.906,10.906,0,0,1,8.693-.414,5.147,5.147,0,0,1,1.849,1.041c1.15,1.076,2.319,2.27,1.492,4.045-.8,1.718-2.433,1.064-3.633.843-2.35-.432-4.607-1.6-6.952-1.766-4.118-.289-8.272-.05-12.412-.034-.97,0-1.946.059-2.911-.019-2.453-.2-3.589-1.062-4.081-3.429A72.4,72.4,0,0,1,4.4,67.21c-.637-6.345-.925-12.744.4-19A16.7,16.7,0,0,1,12.08,37.535c1.352-.9,2.685-1.824,4.079-2.65,5.071-3.007,7.822-7.6,9.123-13.53,1.221.635,2.243,1.247,3.33,1.7.846.355,1.9,1.548,2.55-.344.064-.185.984-.074,2.018-.127-.808-.806-1.294-1.33-1.821-1.807-.722-.654-1.465-1.286-2.219-1.9C25.755,16.1,25.41,15.7,28.705,12.9A20.24,20.24,0,0,0,35.1,3.118c.014-.046.1-.069.409-.257.107.814.224,1.519.288,2.23a5.905,5.905,0,0,0,3.541,5.353c3.105,1.453,6.157,3.015,7.477,6.661.3.838,1.755,1.377,2.783,1.8a16.688,16.688,0,0,0,3.3.58L47.052,29.636,39.076,26l-.432.749,5.792,4.289c-1.146,1.248-1.146,1.248-5.839-3.116-.932,1.178-.453,2.1.417,3,.807.829,1.6,1.673,2.379,2.491-.138.214-.183.384-.28.421-5.755,2.222-5.493,7.219-5.158,11.919.483,6.782,1.347,13.542,2.24,20.286a41.936,41.936,0,0,0,1.794,6.275c.092.31.36.606.349.9-.113,3,1.916,3.579,4.276,3.952,1.753.276,3.471.775,5.205,1.175l-.068.581-9.28-.434-.242.545c.7.457,1.38,1.278,2.1,1.308a58.8,58.8,0,0,0,8.45-.153A3.234,3.234,0,0,0,52.96,78.15c.144-.556-.95-1.774-1.75-2.163a23.965,23.965,0,0,0-5.641-2.025,2.8,2.8,0,0,1-2.58-2.6c-.637-4.219-1.4-8.423-1.9-12.659-.544-4.637-.934-9.3-1.205-13.956a24.709,24.709,0,0,1,.606-4.784,4.41,4.41,0,0,1,3.228-3.782" transform="translate(0 0)"/>
          <path id="Path_9439" data-name="Path 9439" d="M75.112,123.011c-1.989.906-1.98,2.589-1.867,4.2.321,4.577.74,9.148,1.119,13.721a2.036,2.036,0,0,0,.068.769c.483.859,1,2.377,1.543,2.395,1.392.046,1.853-1.343,1.724-2.544-.62-5.78-1.338-11.549-2.05-17.319a4.774,4.774,0,0,0-.538-1.218" transform="translate(-49.479 -74.913)"/>
          <path id="Path_9440" data-name="Path 9440" d="M63.54,142.011c1.345-2.863.318-19.847-1.228-21.227-2.174,1.89-1.646,4.436-1.617,6.833.046,3.7.16,7.389.275,11.083.059,1.891.468,2.4,2.57,3.311" transform="translate(-31 -73.556)"/>
          <path id="Path_9441" data-name="Path 9441" d="M49.142,61.935,52.763,59.7c-.992-.989-1.583-2.487-3.268-1.774-.937.4-1.081,3.02-.353,4.009" transform="translate(-14.931 -35.163)"/>
          <path id="Path_9442" data-name="Path 9442" d="M54.677,43.3a9.47,9.47,0,0,0,2.371,1.237c.282.05,1.12-1.015,1.023-1.188a3.753,3.753,0,0,0-1.592-1.588c-.25-.109-.932.77-1.8,1.539" transform="translate(-22.592 -25.429)"/>
          <path id="Path_9443" data-name="Path 9443" d="M34.684,58.6A10.548,10.548,0,0,0,36.871,59.8c.182.047.913-.869.815-1.12a2.476,2.476,0,0,0-1.257-1.352c-.283-.1-.864.6-1.744,1.266" transform="translate(5.61 -34.907)"/>
        </g>
      </g>
    </g>
  </g>
</svg>
