<svg width="201" height="113" viewBox="0 0 201 113" fill="none" xmlns="http://www.w3.org/2000/svg">
<path d="M3.8325 108.47V98.9375H0.15V97.67H8.85V98.9375H5.1675V108.47H3.8325ZM10.0366 108.47V97.67H11.2366V101.412C11.8366 100.61 12.7666 100.16 13.9366 100.16C16.5466 100.16 17.1616 102.455 17.1616 103.992V108.47H15.8116V104.412C15.8116 102.89 15.3241 101.427 13.6141 101.427C12.2716 101.427 11.3866 102.327 11.3866 104.202V108.47H10.0366ZM22.6215 108.695C20.229 108.695 18.6615 107.007 18.6615 104.472C18.6615 101.817 20.2065 100.145 22.5615 100.145C24.999 100.145 26.424 101.915 26.304 104.795H20.094C20.199 106.475 21.069 107.427 22.5615 107.427C23.6265 107.427 24.4365 106.925 24.8865 106.002L26.169 106.445C25.5315 107.877 24.189 108.695 22.6215 108.695ZM22.6065 101.345C21.159 101.345 20.3115 102.185 20.1165 103.722H24.9165C24.7515 102.132 23.979 101.345 22.6065 101.345ZM34.0368 108.687C32.1018 108.687 30.8043 107.802 30.5268 106.28L31.8918 106.062C32.1093 106.947 32.9493 107.495 34.1193 107.495C35.2218 107.495 35.8968 107.007 35.8968 106.212C35.8968 105.53 35.5893 105.335 33.6093 104.802C31.4643 104.232 30.7818 103.677 30.7818 102.515C30.7818 101.09 32.0268 100.145 33.8943 100.145C35.7393 100.145 37.0743 101.09 37.2468 102.515L35.8818 102.762C35.7468 101.9 34.9968 101.367 33.8943 101.337C32.8443 101.307 32.1243 101.757 32.1243 102.447C32.1243 103.04 32.5368 103.295 34.4418 103.775C36.5793 104.322 37.2768 104.922 37.2768 106.175C37.2768 107.742 36.0543 108.687 34.0368 108.687ZM39.7484 99.1175C39.2534 99.1175 38.8784 98.735 38.8784 98.2475C38.8784 97.76 39.2534 97.3775 39.7484 97.3775C40.2509 97.3775 40.6259 97.76 40.6259 98.2475C40.6259 98.735 40.2509 99.1175 39.7484 99.1175ZM39.0809 108.47V100.37H40.4159V108.47H39.0809ZM42.8162 108.47V97.445H44.1512V108.47H42.8162ZM49.9116 108.695C47.5191 108.695 45.9516 107.007 45.9516 104.472C45.9516 101.817 47.4966 100.145 49.8516 100.145C52.2891 100.145 53.7141 101.915 53.5941 104.795H47.3841C47.4891 106.475 48.3591 107.427 49.8516 107.427C50.9166 107.427 51.7266 106.925 52.1766 106.002L53.4591 106.445C52.8216 107.877 51.4791 108.695 49.9116 108.695ZM49.8966 101.345C48.4491 101.345 47.6016 102.185 47.4066 103.722H52.2066C52.0416 102.132 51.2691 101.345 49.8966 101.345ZM55.0366 108.47V100.37H56.2366V101.412C56.8366 100.61 57.7666 100.16 58.9366 100.16C61.5466 100.16 62.1616 102.455 62.1616 103.992V108.47H60.8116V104.412C60.8116 102.89 60.3241 101.427 58.6141 101.427C57.2716 101.427 56.3866 102.327 56.3866 104.202V108.47H55.0366ZM67.4508 108.695C64.9833 108.695 63.6108 106.902 63.5883 104.42C63.6108 101.892 65.0283 100.145 67.4658 100.145C69.1683 100.145 70.4883 101.045 70.9158 102.5L69.5958 102.897C69.2508 101.96 68.4333 101.412 67.4508 101.412C65.7858 101.412 65.0208 102.665 65.0058 104.42C65.0208 106.227 65.8383 107.427 67.4508 107.427C68.5008 107.427 69.1983 106.932 69.5658 106.01L70.9158 106.362C70.3458 107.877 69.1233 108.695 67.4508 108.695ZM75.7368 108.695C73.3443 108.695 71.7768 107.007 71.7768 104.472C71.7768 101.817 73.3218 100.145 75.6768 100.145C78.1143 100.145 79.5393 101.915 79.4193 104.795H73.2093C73.3143 106.475 74.1843 107.427 75.6768 107.427C76.7418 107.427 77.5518 106.925 78.0018 106.002L79.2843 106.445C78.6468 107.877 77.3043 108.695 75.7368 108.695ZM75.7218 101.345C74.2743 101.345 73.4268 102.185 73.2318 103.722H78.0318C77.8668 102.132 77.0943 101.345 75.7218 101.345ZM84.0845 108.47V97.67H85.427V101.105C86.0045 100.497 86.807 100.145 87.8195 100.145C90.0695 100.145 91.442 101.982 91.442 104.412C91.442 106.842 90.077 108.695 87.812 108.695C86.717 108.695 85.8695 108.267 85.277 107.555V108.47H84.0845ZM87.647 107.472C89.2445 107.472 90.0245 106.137 90.0245 104.412C90.0245 102.702 89.2595 101.367 87.6095 101.367C86.027 101.367 85.277 102.62 85.277 104.412C85.277 106.19 86.012 107.472 87.647 107.472ZM96.5961 108.695C94.2036 108.695 92.6361 107.007 92.6361 104.472C92.6361 101.817 94.1811 100.145 96.5361 100.145C98.9736 100.145 100.399 101.915 100.279 104.795H94.0686C94.1736 106.475 95.0436 107.427 96.5361 107.427C97.6011 107.427 98.4111 106.925 98.8611 106.002L100.144 106.445C99.5061 107.877 98.1636 108.695 96.5961 108.695ZM96.5811 101.345C95.1336 101.345 94.2861 102.185 94.0911 103.722H98.8911C98.7261 102.132 97.9536 101.345 96.5811 101.345ZM102.721 108.47V101.472H101.348V100.37H102.721V99.9275C102.721 99.305 102.751 98.6 103.231 98.075C103.786 97.4675 104.543 97.445 105.158 97.445H106.186V98.555H105.233C104.438 98.555 104.056 98.945 104.056 99.7175V100.37H106.186V101.472H104.056V108.47H102.721ZM110.54 108.695C108.118 108.695 106.64 106.925 106.64 104.412C106.64 101.87 108.163 100.145 110.54 100.145C112.97 100.145 114.448 101.907 114.448 104.412C114.448 106.955 112.948 108.695 110.54 108.695ZM110.54 107.427C112.213 107.427 113.03 106.197 113.03 104.412C113.03 102.59 112.198 101.412 110.54 101.412C108.845 101.412 108.058 102.642 108.058 104.412C108.058 106.242 108.905 107.427 110.54 107.427ZM116.099 108.47V100.37H117.291V101.652C117.471 101.337 117.711 101.06 117.981 100.865C118.604 100.362 119.556 100.212 120.276 100.37V101.622C119.714 101.48 118.986 101.517 118.424 101.93C117.636 102.492 117.441 103.445 117.441 104.405V108.47H116.099ZM125.058 108.695C122.666 108.695 121.098 107.007 121.098 104.472C121.098 101.817 122.643 100.145 124.998 100.145C127.436 100.145 128.861 101.915 128.741 104.795H122.531C122.636 106.475 123.506 107.427 124.998 107.427C126.063 107.427 126.873 106.925 127.323 106.002L128.606 106.445C127.968 107.877 126.626 108.695 125.058 108.695ZM125.043 101.345C123.596 101.345 122.748 102.185 122.553 103.722H127.353C127.188 102.132 126.416 101.345 125.043 101.345ZM137.936 108.47C136.488 108.762 134.996 108.597 134.433 107.495C134.111 106.865 134.156 106.25 134.156 105.41V101.472H132.513V100.37H134.156V98.12H135.491V100.37H137.936V101.472H135.491V105.35C135.491 106.017 135.461 106.467 135.656 106.805C136.016 107.45 136.826 107.495 137.936 107.322V108.47ZM139.573 108.47V97.67H140.773V101.412C141.373 100.61 142.303 100.16 143.473 100.16C146.083 100.16 146.698 102.455 146.698 103.992V108.47H145.348V104.412C145.348 102.89 144.86 101.427 143.15 101.427C141.808 101.427 140.923 102.327 140.923 104.202V108.47H139.573ZM152.158 108.695C149.765 108.695 148.198 107.007 148.198 104.472C148.198 101.817 149.743 100.145 152.098 100.145C154.535 100.145 155.96 101.915 155.84 104.795H149.63C149.735 106.475 150.605 107.427 152.098 107.427C153.163 107.427 153.973 106.925 154.423 106.002L155.705 106.445C155.068 107.877 153.725 108.695 152.158 108.695ZM152.143 101.345C150.695 101.345 149.848 102.185 149.653 103.722H154.453C154.288 102.132 153.515 101.345 152.143 101.345ZM163.573 108.687C161.638 108.687 160.34 107.802 160.063 106.28L161.428 106.062C161.645 106.947 162.485 107.495 163.655 107.495C164.758 107.495 165.433 107.007 165.433 106.212C165.433 105.53 165.125 105.335 163.145 104.802C161 104.232 160.318 103.677 160.318 102.515C160.318 101.09 161.563 100.145 163.43 100.145C165.275 100.145 166.61 101.09 166.783 102.515L165.418 102.762C165.283 101.9 164.533 101.367 163.43 101.337C162.38 101.307 161.66 101.757 161.66 102.447C161.66 103.04 162.073 103.295 163.978 103.775C166.115 104.322 166.813 104.922 166.813 106.175C166.813 107.742 165.59 108.687 163.573 108.687ZM172.989 108.47C171.542 108.762 170.049 108.597 169.487 107.495C169.164 106.865 169.209 106.25 169.209 105.41V101.472H167.567V100.37H169.209V98.12H170.544V100.37H172.989V101.472H170.544V105.35C170.544 106.017 170.514 106.467 170.709 106.805C171.069 107.45 171.879 107.495 172.989 107.322V108.47ZM177.747 108.695C175.325 108.695 173.847 106.925 173.847 104.412C173.847 101.87 175.37 100.145 177.747 100.145C180.177 100.145 181.655 101.907 181.655 104.412C181.655 106.955 180.155 108.695 177.747 108.695ZM177.747 107.427C179.42 107.427 180.237 106.197 180.237 104.412C180.237 102.59 179.405 101.412 177.747 101.412C176.052 101.412 175.265 102.642 175.265 104.412C175.265 106.242 176.112 107.427 177.747 107.427ZM183.306 108.47V100.37H184.498V101.652C184.678 101.337 184.918 101.06 185.188 100.865C185.811 100.362 186.763 100.212 187.483 100.37V101.622C186.921 101.48 186.193 101.517 185.631 101.93C184.843 102.492 184.648 103.445 184.648 104.405V108.47H183.306ZM188.894 108.47V100.37H190.087V101.232C190.597 100.572 191.422 100.16 192.389 100.16C193.484 100.16 194.317 100.647 194.752 101.495C195.232 100.662 196.139 100.16 197.204 100.16C198.892 100.16 199.927 101.27 199.927 102.995L199.919 108.47H198.584L198.592 103.287C198.592 102.08 197.872 101.352 196.852 101.352C195.944 101.352 195.082 101.96 195.082 103.325L195.074 108.47H193.747L193.754 103.34C193.754 102.11 193.057 101.352 191.999 101.352C190.942 101.352 190.237 102.14 190.237 103.325V108.47H188.894Z" fill="#494949"/>
<path d="M79.0309 10.913C72.7909 10.913 67.2099 7.61302 65.1409 2.71302C65.0428 2.48053 64.9915 2.23091 64.99 1.97854C64.9886 1.72617 65.037 1.476 65.1325 1.2424C65.2281 1.00879 65.3688 0.796359 65.5466 0.617304C65.7245 0.438249 65.936 0.296099 66.1689 0.199015C66.4001 0.0988189 66.649 0.0459512 66.9009 0.0435275C67.1528 0.0411037 67.4027 0.0891705 67.6357 0.1849C67.8687 0.28063 68.0802 0.422087 68.2577 0.600901C68.4351 0.779715 68.575 0.992272 68.6689 1.22602C70.2029 4.72602 74.3269 7.08302 79.0329 7.08302C83.7389 7.08302 87.8639 4.72302 89.3969 1.22602C89.4943 0.989508 89.6378 0.774777 89.8192 0.594416C90.0005 0.414055 90.216 0.271679 90.453 0.175623C90.6901 0.0795662 90.9439 0.0317574 91.1996 0.0349978C91.4554 0.0382382 91.7079 0.0924663 91.9424 0.194498C92.1769 0.29653 92.3887 0.444323 92.5654 0.629221C92.7422 0.814119 92.8802 1.03241 92.9715 1.27131C93.0628 1.51022 93.1056 1.76492 93.0972 2.02055C93.0889 2.27617 93.0296 2.52757 92.9229 2.76002C90.9309 7.62002 85.2729 10.916 79.0329 10.916L79.0309 10.913Z" fill="black"/>
<path d="M130.425 10.913C124.185 10.913 118.604 7.61301 116.535 2.71301C116.428 2.48057 116.369 2.22918 116.361 1.97356C116.352 1.71793 116.395 1.46321 116.486 1.22431C116.578 0.985401 116.716 0.767114 116.892 0.582216C117.069 0.397318 117.281 0.249525 117.515 0.147493C117.75 0.0454617 118.003 -0.00875124 118.258 -0.0119916C118.514 -0.015232 118.768 0.0325615 119.005 0.128618C119.242 0.224675 119.457 0.367065 119.639 0.547426C119.82 0.727787 119.964 0.942503 120.061 1.17902C121.595 4.67902 125.703 7.03601 130.425 7.03601C135.147 7.03601 139.303 4.67502 140.789 1.17902C140.887 0.947432 141.029 0.737361 141.208 0.560793C141.387 0.384225 141.599 0.244619 141.832 0.14995C142.064 0.0552806 142.314 0.00739295 142.565 0.00903501C142.816 0.0106771 143.065 0.0618137 143.296 0.159517C143.528 0.257221 143.738 0.399587 143.915 0.578478C144.091 0.757368 144.231 0.969277 144.326 1.20212C144.42 1.43496 144.468 1.68417 144.466 1.93552C144.465 2.18687 144.414 2.43542 144.316 2.66701C142.246 7.61901 136.665 10.915 130.425 10.915V10.913Z" fill="black"/>
<path d="M104.634 53.062C103.113 53.0601 101.612 52.7136 100.244 52.0486C98.8754 51.3836 97.6757 50.4173 96.7344 49.2223C95.7931 48.0272 95.1348 46.6345 94.8088 45.1486C94.4827 43.6628 94.4975 42.1224 94.852 40.643L102.518 8.55301C102.569 8.30078 102.67 8.06139 102.815 7.84911C102.961 7.63682 103.147 7.456 103.364 7.31741C103.581 7.17883 103.824 7.08533 104.077 7.0425C104.331 6.99966 104.591 7.00837 104.841 7.0681C105.091 7.12783 105.327 7.23736 105.534 7.39015C105.741 7.54294 105.915 7.73586 106.046 7.95741C106.177 8.17896 106.262 8.42461 106.296 8.67967C106.329 8.93474 106.312 9.19401 106.243 9.44202L98.593 41.549C98.3754 42.4634 98.3677 43.4152 98.5705 44.3331C98.7733 45.2509 99.1813 46.1108 99.7639 46.8484C100.346 47.586 101.089 48.1821 101.934 48.592C102.78 49.0019 103.708 49.2149 104.648 49.215C105.149 49.2264 105.625 49.4334 105.975 49.7916C106.325 50.1497 106.521 50.6307 106.521 51.1315C106.521 51.6324 106.325 52.1133 105.975 52.4715C105.625 52.8296 105.149 53.0366 104.648 53.048L104.634 53.062Z" fill="black"/>
<path d="M117.807 69.421H92.2778C91.7695 69.421 91.2821 69.2191 90.9227 68.8597C90.5633 68.5003 90.3613 68.0128 90.3613 67.5045C90.3613 66.9962 90.5633 66.5087 90.9227 66.1493C91.2821 65.7899 91.7695 65.588 92.2778 65.588H117.806C118.314 65.588 118.802 65.7899 119.161 66.1493C119.52 66.5087 119.722 66.9962 119.722 67.5045C119.722 68.0128 119.52 68.5003 119.161 68.8597C118.802 69.2191 118.314 69.421 117.806 69.421H117.807Z" fill="black"/>
</svg>
